<?xml version="1.0" encoding="utf-8"?>
<!-- Generator: Adobe Illustrator 21.0.2, SVG Export Plug-In . SVG Version: 6.00 Build 0)  -->
<svg version="1.1" id="Layer_1" xmlns="http://www.w3.org/2000/svg" xmlns:xlink="http://www.w3.org/1999/xlink" x="0px" y="0px"
	 viewBox="0 0 265 265" style="enable-background:new 0 0 265 265;" xml:space="preserve">
<style type="text/css">
	.st0{fill:#1177D1;}
	.st1{fill:#CB9028;}
	.st2{fill:#FFF7A9;}
	.st3{fill:#A17218;}
	.st4{fill:#EAA82D;}
	.st5{fill:#FEE662;}
	.st6{fill:#97691E;}
	.st7{fill:#FDD06B;}
	.st8{fill:#FFDB60;}
	.st9{fill:#ECAE37;}
	.st10{fill:#FFFFFF;}
</style>
<polyline class="st0" points="16.4,0.9 247.3,0.9 247.3,207.1 127.4,264.5 16.4,207.1 "/>
<g>
	<polygon class="st1" points="128.9,115.4 105.8,84.6 56.9,87.3 	"/>
	<polygon class="st1" points="128.9,115.4 152.1,84.6 206.7,87.9 	"/>
	<polygon class="st2" points="128.9,115.4 152.1,84.6 129,37.6 	"/>
	<polygon class="st3" points="128.9,115.4 105.8,84.6 128.8,37.6 	"/>
	<polygon class="st4" points="128.9,115.4 97.8,121.7 56.9,87.3 	"/>
	<polygon class="st5" points="128.9,115.4 161.4,121.7 206.7,87.9 	"/>
	<polygon class="st6" points="97.8,121.7 85.8,171.4 128.9,115.4 	"/>
	<polyline class="st7" points="128.9,115.4 161.7,121.7 173.7,171.4 	"/>
	<polygon class="st8" points="85.8,171.4 128.9,140.3 128.9,115.4 	"/>
	<polygon class="st9" points="173.7,171.4 128.9,140.3 128.9,115.4 	"/>
</g>
<path class="st0" d="M127.4,132.7"/>
<polyline class="st10" points="16.4,197.5 127.4,254.5 247.3,197.5 247.3,183.5 127.4,240.5 16.4,183.5 "/>
</svg>
