<?xml version="1.0" encoding="utf-8"?>
<!-- Generator: Adobe Illustrator 21.0.2, SVG Export Plug-In . SVG Version: 6.00 Build 0)  -->
<svg version="1.1" id="Layer_1" xmlns="http://www.w3.org/2000/svg" xmlns:xlink="http://www.w3.org/1999/xlink" x="0px" y="0px"
	 viewBox="0 0 265 265" style="enable-background:new 0 0 265 265;" xml:space="preserve">
<style type="text/css">
	.st0{fill:#1177D1;}
	.st1{fill:#CB9028;}
	.st2{fill:#FFF7A9;}
	.st3{fill:#A17218;}
	.st4{fill:#EAA82D;}
	.st5{fill:#FEE662;}
	.st6{fill:#97691E;}
	.st7{fill:#FDD06B;}
	.st8{fill:#FFDB60;}
	.st9{fill:#ECAE37;}
	.st10{fill:#FFFFFF;}
	.st11{fill:none;}
</style>
<polyline class="st0" points="15.4,1.6 246.3,1.6 246.3,207.8 126.4,265.2 15.4,207.8 "/>
<g>
	<polygon class="st1" points="127.9,51.5 115.8,35.4 90.4,36.8 	"/>
	<polygon class="st1" points="127.9,51.5 139.9,35.4 168.3,37.2 	"/>
	<polygon class="st2" points="127.9,51.5 139.9,35.4 127.9,11 	"/>
	<polygon class="st3" points="127.9,51.5 115.8,35.4 127.8,11 	"/>
	<polygon class="st4" points="127.9,51.5 111.7,54.7 90.4,36.8 	"/>
	<polygon class="st5" points="127.9,51.5 144.7,54.7 168.3,37.2 	"/>
	<polygon class="st6" points="111.7,54.7 105.4,80.6 127.9,51.5 	"/>
	<polyline class="st7" points="127.9,51.5 144.9,54.7 151.1,80.6 	"/>
	<polygon class="st8" points="105.4,80.6 127.9,64.4 127.9,51.5 	"/>
	<polygon class="st9" points="151.1,80.6 127.9,64.4 127.9,51.5 	"/>
</g>
<path class="st0" d="M126.4,133.4"/>
<polyline class="st10" points="15.4,198.2 126.4,255.2 246.3,198.2 246.3,184.2 126.4,241.2 15.4,184.2 "/>
<g>
	<polygon class="st1" points="196.5,98.5 184.5,82.4 159.1,83.8 	"/>
	<polygon class="st1" points="196.5,98.5 208.6,82.4 237,84.2 	"/>
	<polygon class="st2" points="196.5,98.5 208.6,82.4 196.6,58 	"/>
	<polygon class="st3" points="196.5,98.5 184.5,82.4 196.5,58 	"/>
	<polygon class="st4" points="196.5,98.5 180.3,101.7 159.1,83.8 	"/>
	<polygon class="st5" points="196.5,98.5 213.4,101.7 237,84.2 	"/>
	<polygon class="st6" points="180.3,101.7 174.1,127.6 196.5,98.5 	"/>
	<polyline class="st7" points="196.5,98.5 213.6,101.7 219.8,127.6 	"/>
	<polygon class="st8" points="174.1,127.6 196.5,111.4 196.5,98.5 	"/>
	<polygon class="st9" points="219.8,127.6 196.5,111.4 196.5,98.5 	"/>
</g>
<g>
	<polygon class="st1" points="59.1,97 47,81 21.6,82.4 	"/>
	<polygon class="st1" points="59.1,97 71.1,81 99.5,82.7 	"/>
	<polygon class="st2" points="59.1,97 71.1,81 59.1,56.6 	"/>
	<polygon class="st3" points="59.1,97 47,81 59,56.6 	"/>
	<polygon class="st4" points="59.1,97 42.9,100.3 21.6,82.4 	"/>
	<polygon class="st5" points="59.1,97 75.9,100.3 99.5,82.7 	"/>
	<polygon class="st6" points="42.9,100.3 36.6,126.1 59.1,97 	"/>
	<polyline class="st7" points="59.1,97 76.1,100.3 82.3,126.1 	"/>
	<polygon class="st8" points="36.6,126.1 59.1,110 59.1,97 	"/>
	<polygon class="st9" points="82.3,126.1 59.1,110 59.1,97 	"/>
</g>
<g>
	<polygon class="st1" points="170.8,173.1 158.8,157 133.4,158.4 	"/>
	<polygon class="st1" points="170.8,173.1 182.9,157 211.3,158.8 	"/>
	<polygon class="st2" points="170.8,173.1 182.9,157 170.9,132.6 	"/>
	<polygon class="st3" points="170.8,173.1 158.8,157 170.8,132.6 	"/>
	<polygon class="st4" points="170.8,173.1 154.6,176.3 133.4,158.4 	"/>
	<polygon class="st5" points="170.8,173.1 187.7,176.3 211.3,158.8 	"/>
	<polygon class="st6" points="154.6,176.3 148.4,202.2 170.8,173.1 	"/>
	<polyline class="st7" points="170.8,173.1 187.8,176.3 194.1,202.2 	"/>
	<polygon class="st8" points="148.4,202.2 170.8,186 170.8,173.1 	"/>
	<polygon class="st9" points="194.1,202.2 170.8,186 170.8,173.1 	"/>
</g>
<g>
	<polygon class="st1" points="85.9,172.9 73.9,156.9 48.4,158.3 	"/>
	<polygon class="st1" points="85.9,172.9 97.9,156.9 126.4,158.6 	"/>
	<polygon class="st2" points="85.9,172.9 97.9,156.9 85.9,132.4 	"/>
	<polygon class="st3" points="85.9,172.9 73.9,156.9 85.8,132.4 	"/>
	<polygon class="st4" points="85.9,172.9 69.7,176.2 48.4,158.3 	"/>
	<polygon class="st5" points="85.9,172.9 102.8,176.2 126.4,158.6 	"/>
	<polygon class="st6" points="69.7,176.2 63.5,202 85.9,172.9 	"/>
	<polyline class="st7" points="85.9,172.9 102.9,176.2 109.2,202 	"/>
	<polygon class="st8" points="63.5,202 85.9,185.9 85.9,172.9 	"/>
	<polygon class="st9" points="109.2,202 85.9,185.9 85.9,172.9 	"/>
</g>
<line class="st11" x1="126.4" y1="241.2" x2="126.4" y2="-2.3"/>
</svg>
