<?xml version="1.0" encoding="utf-8"?>
<!-- Generator: Adobe Illustrator 21.0.2, SVG Export Plug-In . SVG Version: 6.00 Build 0)  -->
<svg version="1.1" id="Layer_1" xmlns="http://www.w3.org/2000/svg" xmlns:xlink="http://www.w3.org/1999/xlink" x="0px" y="0px"
	 viewBox="0 0 265 265" style="enable-background:new 0 0 265 265;" xml:space="preserve">
<style type="text/css">
	.st0{fill:#1177D1;}
	.st1{fill:#CB9028;}
	.st2{fill:#FFF7A9;}
	.st3{fill:#A17218;}
	.st4{fill:#EAA82D;}
	.st5{fill:#FEE662;}
	.st6{fill:#97691E;}
	.st7{fill:#FDD06B;}
	.st8{fill:#FFDB60;}
	.st9{fill:#ECAE37;}
	.st10{fill:#FFFFFF;}
</style>
<polyline class="st0" points="15.4,1.6 246.3,1.6 246.3,207.8 126.4,265.2 15.4,207.8 "/>
<g>
	<polygon class="st1" points="74.9,59 61.7,41.3 33.6,42.8 	"/>
	<polygon class="st1" points="74.9,59 88.2,41.3 119.6,43.2 	"/>
	<polygon class="st2" points="74.9,59 88.2,41.3 75,14.3 	"/>
	<polygon class="st3" points="74.9,59 61.7,41.3 74.9,14.3 	"/>
	<polygon class="st4" points="74.9,59 57.1,62.6 33.6,42.8 	"/>
	<polygon class="st5" points="74.9,59 93.6,62.6 119.6,43.2 	"/>
	<polygon class="st6" points="57.1,62.6 50.2,91.1 74.9,59 	"/>
	<polyline class="st7" points="74.9,59 93.7,62.6 100.6,91.1 	"/>
	<polygon class="st8" points="50.2,91.1 74.9,73.3 74.9,59 	"/>
	<polygon class="st9" points="100.6,91.1 74.9,73.3 74.9,59 	"/>
</g>
<path class="st0" d="M126.4,133.4"/>
<polyline class="st10" points="15.4,198.2 126.4,255.2 246.3,198.2 246.3,184.2 126.4,241.2 15.4,184.2 "/>
<g>
	<polygon class="st1" points="182.9,59 169.7,41.3 141.6,42.8 	"/>
	<polygon class="st1" points="182.9,59 196.2,41.3 227.6,43.2 	"/>
	<polygon class="st2" points="182.9,59 196.2,41.3 183,14.3 	"/>
	<polygon class="st3" points="182.9,59 169.7,41.3 182.9,14.3 	"/>
	<polygon class="st4" points="182.9,59 165.1,62.6 141.6,42.8 	"/>
	<polygon class="st5" points="182.9,59 201.6,62.6 227.6,43.2 	"/>
	<polygon class="st6" points="165.1,62.6 158.2,91.1 182.9,59 	"/>
	<polyline class="st7" points="182.9,59 201.7,62.6 208.6,91.1 	"/>
	<polygon class="st8" points="158.2,91.1 182.9,73.3 182.9,59 	"/>
	<polygon class="st9" points="208.6,91.1 182.9,73.3 182.9,59 	"/>
</g>
<g>
	<polygon class="st1" points="73.3,150.4 60,132.7 31.9,134.2 	"/>
	<polygon class="st1" points="73.3,150.4 86.6,132.7 117.9,134.6 	"/>
	<polygon class="st2" points="73.3,150.4 86.6,132.7 73.3,105.7 	"/>
	<polygon class="st3" points="73.3,150.4 60,132.7 73.2,105.7 	"/>
	<polygon class="st4" points="73.3,150.4 55.4,154 31.9,134.2 	"/>
	<polygon class="st5" points="73.3,150.4 91.9,154 117.9,134.6 	"/>
	<polygon class="st6" points="55.4,154 48.5,182.5 73.3,150.4 	"/>
	<polyline class="st7" points="73.3,150.4 92.1,154 98.9,182.5 	"/>
	<polygon class="st8" points="48.5,182.5 73.3,164.7 73.3,150.4 	"/>
	<polygon class="st9" points="98.9,182.5 73.3,164.7 73.3,150.4 	"/>
</g>
<g>
	<polygon class="st1" points="179.6,150.4 166.3,132.7 138.3,134.2 	"/>
	<polygon class="st1" points="179.6,150.4 192.9,132.7 224.3,134.6 	"/>
	<polygon class="st2" points="179.6,150.4 192.9,132.7 179.7,105.7 	"/>
	<polygon class="st3" points="179.6,150.4 166.3,132.7 179.5,105.7 	"/>
	<polygon class="st4" points="179.6,150.4 161.7,154 138.3,134.2 	"/>
	<polygon class="st5" points="179.6,150.4 198.2,154 224.3,134.6 	"/>
	<polygon class="st6" points="161.7,154 154.8,182.5 179.6,150.4 	"/>
	<polyline class="st7" points="179.6,150.4 198.4,154 205.3,182.5 	"/>
	<polygon class="st8" points="154.8,182.5 179.6,164.7 179.6,150.4 	"/>
	<polygon class="st9" points="205.3,182.5 179.6,164.7 179.6,150.4 	"/>
</g>
</svg>
