<?xml version="1.0" encoding="utf-8"?>
<!-- Generator: Adobe Illustrator 21.0.2, SVG Export Plug-In . SVG Version: 6.00 Build 0)  -->
<svg version="1.1" id="Layer_1" xmlns="http://www.w3.org/2000/svg" xmlns:xlink="http://www.w3.org/1999/xlink" x="0px" y="0px"
	 viewBox="0 0 265 265" style="enable-background:new 0 0 265 265;" xml:space="preserve">
<style type="text/css">
	.st0{fill:#1177D1;}
	.st1{fill:#CB9028;}
	.st2{fill:#FFF7A9;}
	.st3{fill:#A17218;}
	.st4{fill:#EAA82D;}
	.st5{fill:#FEE662;}
	.st6{fill:#97691E;}
	.st7{fill:#FDD06B;}
	.st8{fill:#FFDB60;}
	.st9{fill:#ECAE37;}
	.st10{fill:#FFFFFF;}
</style>
<polyline class="st0" points="15.4,0.9 246.3,0.9 246.3,207.1 126.4,264.5 15.4,207.1 "/>
<g>
	<polygon class="st1" points="82.5,71.1 64.5,47.1 26.4,49.2 	"/>
	<polygon class="st1" points="82.5,71.1 100.6,47.1 143.2,49.7 	"/>
	<polygon class="st2" points="82.5,71.1 100.6,47.1 82.6,10.5 	"/>
	<polygon class="st3" points="82.5,71.1 64.5,47.1 82.5,10.5 	"/>
	<polygon class="st4" points="82.5,71.1 58.3,76 26.4,49.2 	"/>
	<polygon class="st5" points="82.5,71.1 107.8,76 143.2,49.7 	"/>
	<polygon class="st6" points="58.3,76 48.9,114.7 82.5,71.1 	"/>
	<polyline class="st7" points="82.5,71.1 108,76 117.4,114.7 	"/>
	<polygon class="st8" points="48.9,114.7 82.5,90.5 82.5,71.1 	"/>
	<polygon class="st9" points="117.4,114.7 82.5,90.5 82.5,71.1 	"/>
</g>
<path class="st0" d="M126.4,132.7"/>
<polyline class="st10" points="15.4,197.5 126.4,254.5 246.3,197.5 246.3,183.5 126.4,240.5 15.4,183.5 "/>
<g>
	<polygon class="st1" points="172.2,145.7 154.2,121.6 116.1,123.7 	"/>
	<polygon class="st1" points="172.2,145.7 190.3,121.6 232.9,124.2 	"/>
	<polygon class="st2" points="172.2,145.7 190.3,121.6 172.3,85 	"/>
	<polygon class="st3" points="172.2,145.7 154.2,121.6 172.2,85 	"/>
	<polygon class="st4" points="172.2,145.7 148,150.5 116.1,123.7 	"/>
	<polygon class="st5" points="172.2,145.7 197.5,150.5 232.9,124.2 	"/>
	<polygon class="st6" points="148,150.5 138.6,189.2 172.2,145.7 	"/>
	<polyline class="st7" points="172.2,145.7 197.7,150.5 207.1,189.2 	"/>
	<polygon class="st8" points="138.6,189.2 172.2,165.1 172.2,145.7 	"/>
	<polygon class="st9" points="207.1,189.2 172.2,165.1 172.2,145.7 	"/>
</g>
</svg>
