<?xml version="1.0" encoding="utf-8"?>
<!-- Generator: Adobe Illustrator 21.0.2, SVG Export Plug-In . SVG Version: 6.00 Build 0)  -->
<svg version="1.1" id="Layer_1" xmlns="http://www.w3.org/2000/svg" xmlns:xlink="http://www.w3.org/1999/xlink" x="0px" y="0px"
	 viewBox="0 0 265 265" style="enable-background:new 0 0 265 265;" xml:space="preserve">
<style type="text/css">
	.st0{fill:#1177D1;}
	.st1{fill:#CB9028;}
	.st2{fill:#FFF7A9;}
	.st3{fill:#A17218;}
	.st4{fill:#EAA82D;}
	.st5{fill:#FEE662;}
	.st6{fill:#97691E;}
	.st7{fill:#FDD06B;}
	.st8{fill:#FFDB60;}
	.st9{fill:#ECAE37;}
	.st10{fill:#FFFFFF;}
</style>
<polyline class="st0" points="15.4,0.9 246.3,0.9 246.3,207.1 126.4,264.5 15.4,207.1 "/>
<g>
	<polygon class="st1" points="72.4,142.8 57.7,123.2 26.7,124.9 	"/>
	<polygon class="st1" points="72.4,142.8 87.1,123.2 121.8,125.3 	"/>
	<polygon class="st2" points="72.4,142.8 87.1,123.2 72.5,93.4 	"/>
	<polygon class="st3" points="72.4,142.8 57.7,123.2 72.4,93.4 	"/>
	<polygon class="st4" points="72.4,142.8 52.7,146.8 26.7,124.9 	"/>
	<polygon class="st5" points="72.4,142.8 93,146.8 121.8,125.3 	"/>
	<polygon class="st6" points="52.7,146.8 45,178.3 72.4,142.8 	"/>
	<polyline class="st7" points="72.4,142.8 93.2,146.8 100.8,178.3 	"/>
	<polygon class="st8" points="45,178.3 72.4,158.6 72.4,142.8 	"/>
	<polygon class="st9" points="100.8,178.3 72.4,158.6 72.4,142.8 	"/>
</g>
<path class="st0" d="M126.4,132.7"/>
<polyline class="st10" points="15.4,197.5 126.4,254.5 246.3,197.5 246.3,183.5 126.4,240.5 15.4,183.5 "/>
<g>
	<polygon class="st1" points="129.5,59.9 114.8,40.3 83.8,42 	"/>
	<polygon class="st1" points="129.5,59.9 144.2,40.3 178.9,42.4 	"/>
	<polygon class="st2" points="129.5,59.9 144.2,40.3 129.6,10.5 	"/>
	<polygon class="st3" points="129.5,59.9 114.8,40.3 129.5,10.5 	"/>
	<polygon class="st4" points="129.5,59.9 109.8,63.9 83.8,42 	"/>
	<polygon class="st5" points="129.5,59.9 150.1,63.9 178.9,42.4 	"/>
	<polygon class="st6" points="109.8,63.9 102.1,95.4 129.5,59.9 	"/>
	<polyline class="st7" points="129.5,59.9 150.3,63.9 157.9,95.4 	"/>
	<polygon class="st8" points="102.1,95.4 129.5,75.7 129.5,59.9 	"/>
	<polygon class="st9" points="157.9,95.4 129.5,75.7 129.5,59.9 	"/>
</g>
<g>
	<polygon class="st1" points="185.1,144.1 170.4,124.5 139.4,126.2 	"/>
	<polygon class="st1" points="185.1,144.1 199.8,124.5 234.5,126.6 	"/>
	<polygon class="st2" points="185.1,144.1 199.8,124.5 185.2,94.6 	"/>
	<polygon class="st3" points="185.1,144.1 170.4,124.5 185,94.6 	"/>
	<polygon class="st4" points="185.1,144.1 165.3,148 139.4,126.2 	"/>
	<polygon class="st5" points="185.1,144.1 205.7,148 234.5,126.6 	"/>
	<polygon class="st6" points="165.3,148 157.7,179.6 185.1,144.1 	"/>
	<polyline class="st7" points="185.1,144.1 205.9,148 213.5,179.6 	"/>
	<polygon class="st8" points="157.7,179.6 185.1,159.9 185.1,144.1 	"/>
	<polygon class="st9" points="213.5,179.6 185.1,159.9 185.1,144.1 	"/>
</g>
</svg>
